<svg xmlns="http://www.w3.org/2000/svg" xmlns:xlink="http://www.w3.org/1999/xlink" width="1300" zoomAndPan="magnify" viewBox="0 0 974.88 374.250002" height="499" preserveAspectRatio="xMidYMid meet" version="1.0"><defs><g/><clipPath id="e874b59536"><path d="M 852 181 L 973.84375 181 L 973.84375 305 L 852 305 Z M 852 181 " clip-rule="nonzero"/></clipPath><clipPath id="d97ec840d1"><path d="M 0.914062 18 L 251 18 L 251 349 L 0.914062 349 Z M 0.914062 18 " clip-rule="nonzero"/></clipPath></defs><g fill="#5e17eb" fill-opacity="1"><g transform="translate(126.171409, 304.007222)"><g><path d="M 115.421875 -82.46875 L 115.421875 -48.296875 C 115.421875 -40.503906 114.460938 -33.585938 112.546875 -27.546875 C 110.628906 -21.503906 108.160156 -16.679688 105.140625 -13.078125 C 102.117188 -9.472656 98.515625 -6.507812 94.328125 -4.1875 C 87.234375 -0.226562 79.097656 1.75 69.921875 1.75 C 38.421875 1.75 22.671875 -14.347656 22.671875 -46.546875 L 22.671875 -82.640625 C 22.671875 -95.078125 22.289062 -103.5625 21.53125 -108.09375 C 20.78125 -112.632812 19.707031 -115.484375 18.3125 -116.640625 C 15.632812 -118.847656 11.390625 -119.953125 5.578125 -119.953125 L 5.234375 -122.046875 L 52.140625 -122.046875 L 51.78125 -119.953125 C 48.988281 -119.953125 46.75 -119.835938 45.0625 -119.609375 C 43.382812 -119.378906 41.847656 -118.738281 40.453125 -117.6875 C 39.054688 -116.644531 38.035156 -115.453125 37.390625 -114.109375 C 36.753906 -112.773438 36.207031 -110.539062 35.75 -107.40625 C 35.164062 -103.332031 34.875 -95.078125 34.875 -82.640625 L 34.875 -45.6875 C 34.875 -30.800781 38.210938 -20.015625 44.890625 -13.328125 C 51.578125 -6.648438 60.554688 -3.3125 71.828125 -3.3125 C 83.109375 -3.3125 92.46875 -6.941406 99.90625 -14.203125 C 107.34375 -21.472656 111.0625 -32.722656 111.0625 -47.953125 L 111.0625 -82.46875 C 111.0625 -94.09375 110.535156 -102.460938 109.484375 -107.578125 C 108.441406 -112.691406 106.726562 -116.03125 104.34375 -117.59375 C 101.96875 -119.164062 97.929688 -119.953125 92.234375 -119.953125 L 91.890625 -122.046875 L 134.78125 -122.046875 L 134.4375 -119.953125 C 128.738281 -119.953125 124.695312 -119.164062 122.3125 -117.59375 C 119.925781 -116.03125 118.179688 -112.691406 117.078125 -107.578125 C 115.972656 -102.460938 115.421875 -94.09375 115.421875 -82.46875 Z M 115.421875 -82.46875 "/></g></g></g><g fill="#5e17eb" fill-opacity="1"><g transform="translate(263.039068, 304.007222)"><g><path d="M 97.8125 0 C 94.90625 0 92.023438 -1.476562 89.171875 -4.4375 C 86.328125 -7.40625 83.769531 -11.097656 81.5 -15.515625 C 79.238281 -19.929688 76.597656 -24.722656 73.578125 -29.890625 C 70.554688 -35.066406 67.535156 -39.921875 64.515625 -44.453125 C 61.492188 -48.992188 57.65625 -52.832031 53 -55.96875 C 48.351562 -59.101562 43.414062 -60.789062 38.1875 -61.03125 L 38.1875 -39.40625 C 38.1875 -26.851562 38.5625 -18.335938 39.3125 -13.859375 C 40.070312 -9.390625 41.148438 -6.570312 42.546875 -5.40625 C 45.335938 -3.195312 49.640625 -2.09375 55.453125 -2.09375 L 55.796875 0 L 9.0625 0 L 9.421875 -2.09375 C 15.109375 -2.09375 19.289062 -3.140625 21.96875 -5.234375 C 24.175781 -6.972656 25.457031 -12.664062 25.8125 -22.3125 C 26.039062 -26.15625 26.15625 -31.851562 26.15625 -39.40625 L 26.15625 -83.515625 C 26.15625 -96.421875 25.804688 -104.960938 25.109375 -109.140625 C 24.410156 -113.328125 23.363281 -115.945312 21.96875 -117 C 19.289062 -118.96875 15.109375 -119.953125 9.421875 -119.953125 L 9.0625 -122.046875 L 49.515625 -122.046875 C 78.804688 -122.046875 93.453125 -112.164062 93.453125 -92.40625 C 93.453125 -83.925781 90.457031 -76.804688 84.46875 -71.046875 C 78.488281 -65.296875 71.253906 -61.957031 62.765625 -61.03125 C 71.253906 -56.03125 79.101562 -46.847656 86.3125 -33.484375 C 89.101562 -28.242188 92.066406 -23.242188 95.203125 -18.484375 C 102.054688 -7.554688 110.890625 -2.09375 121.703125 -2.09375 L 122.046875 0 Z M 38.1875 -118.046875 L 38.1875 -64.515625 L 49.171875 -64.515625 C 58.003906 -64.515625 65.328125 -66.78125 71.140625 -71.3125 C 76.953125 -75.84375 79.859375 -82.582031 79.859375 -91.53125 C 79.859375 -109.207031 69.742188 -118.046875 49.515625 -118.046875 Z M 38.1875 -118.046875 "/></g></g></g><g fill="#5e17eb" fill-opacity="1"><g transform="translate(375.148479, 304.007222)"><g><path d="M 38.359375 -82.640625 L 38.359375 -39.40625 C 38.359375 -26.96875 38.734375 -18.484375 39.484375 -13.953125 C 40.242188 -9.421875 41.320312 -6.570312 42.71875 -5.40625 C 45.394531 -3.195312 49.640625 -2.09375 55.453125 -2.09375 L 55.796875 0 L 8.71875 0 L 9.0625 -2.09375 C 11.96875 -2.09375 14.234375 -2.207031 15.859375 -2.4375 C 17.492188 -2.675781 19.035156 -3.316406 20.484375 -4.359375 C 21.941406 -5.398438 22.988281 -6.585938 23.625 -7.921875 C 24.257812 -9.265625 24.8125 -11.503906 25.28125 -14.640625 C 25.863281 -18.710938 26.15625 -26.96875 26.15625 -39.40625 L 26.15625 -82.640625 C 26.15625 -94.734375 25.804688 -103.160156 25.109375 -107.921875 C 24.410156 -112.691406 23.363281 -115.660156 21.96875 -116.828125 C 19.175781 -119.035156 14.875 -120.140625 9.0625 -120.140625 L 8.71875 -122.046875 L 55.796875 -122.046875 L 55.453125 -120.140625 C 49.640625 -120.140625 45.394531 -119.035156 42.71875 -116.828125 C 39.8125 -114.378906 38.359375 -102.984375 38.359375 -82.640625 Z M 38.359375 -82.640625 "/></g></g></g><g fill="#5e17eb" fill-opacity="1"><g transform="translate(438.438848, 304.007222)"><g><path d="M 143.671875 -82.640625 L 143.671875 -39.40625 C 143.671875 -26.96875 144.046875 -18.484375 144.796875 -13.953125 C 145.554688 -9.421875 146.632812 -6.570312 148.03125 -5.40625 C 150.707031 -3.195312 154.953125 -2.09375 160.765625 -2.09375 L 161.109375 0 L 114.375 0 L 114.734375 -2.09375 C 120.421875 -2.09375 124.601562 -3.140625 127.28125 -5.234375 C 129.488281 -6.972656 130.769531 -12.664062 131.125 -22.3125 C 131.351562 -26.15625 131.46875 -31.851562 131.46875 -39.40625 L 131.46875 -113.15625 L 82.640625 -1.75 L 32.25 -96.078125 L 32.25 -39.75 C 32.25 -28.125 32.800781 -19.722656 33.90625 -14.546875 C 35.007812 -9.378906 36.78125 -6.007812 39.21875 -4.4375 C 41.664062 -2.875 45.738281 -2.09375 51.4375 -2.09375 L 51.78125 0 L 8.890625 0 L 9.234375 -2.09375 C 13.535156 -2.09375 16.757812 -2.410156 18.90625 -3.046875 C 21.0625 -3.691406 22.894531 -5.40625 24.40625 -8.1875 C 25.914062 -10.976562 26.875 -14.695312 27.28125 -19.34375 C 27.6875 -24 27.890625 -30.800781 27.890625 -39.75 L 27.890625 -82.46875 C 27.890625 -91.414062 27.6875 -98.210938 27.28125 -102.859375 C 26.875 -107.515625 25.914062 -111.238281 24.40625 -114.03125 C 22.894531 -116.820312 21.0625 -118.535156 18.90625 -119.171875 C 16.757812 -119.816406 13.535156 -120.140625 9.234375 -120.140625 L 8.890625 -122.046875 L 32.25 -122.046875 L 86.140625 -20.40625 L 130.59375 -122.046875 L 161.109375 -122.046875 L 160.765625 -120.140625 C 154.953125 -120.140625 150.707031 -119.035156 148.03125 -116.828125 C 145.125 -114.378906 143.671875 -102.984375 143.671875 -82.640625 Z M 143.671875 -82.640625 "/></g></g></g><g fill="#5e17eb" fill-opacity="1"><g transform="translate(607.038879, 304.007222)"><g><path d="M 115.421875 -82.46875 L 115.421875 -48.296875 C 115.421875 -40.503906 114.460938 -33.585938 112.546875 -27.546875 C 110.628906 -21.503906 108.160156 -16.679688 105.140625 -13.078125 C 102.117188 -9.472656 98.515625 -6.507812 94.328125 -4.1875 C 87.234375 -0.226562 79.097656 1.75 69.921875 1.75 C 38.421875 1.75 22.671875 -14.347656 22.671875 -46.546875 L 22.671875 -82.640625 C 22.671875 -95.078125 22.289062 -103.5625 21.53125 -108.09375 C 20.78125 -112.632812 19.707031 -115.484375 18.3125 -116.640625 C 15.632812 -118.847656 11.390625 -119.953125 5.578125 -119.953125 L 5.234375 -122.046875 L 52.140625 -122.046875 L 51.78125 -119.953125 C 48.988281 -119.953125 46.75 -119.835938 45.0625 -119.609375 C 43.382812 -119.378906 41.847656 -118.738281 40.453125 -117.6875 C 39.054688 -116.644531 38.035156 -115.453125 37.390625 -114.109375 C 36.753906 -112.773438 36.207031 -110.539062 35.75 -107.40625 C 35.164062 -103.332031 34.875 -95.078125 34.875 -82.640625 L 34.875 -45.6875 C 34.875 -30.800781 38.210938 -20.015625 44.890625 -13.328125 C 51.578125 -6.648438 60.554688 -3.3125 71.828125 -3.3125 C 83.109375 -3.3125 92.46875 -6.941406 99.90625 -14.203125 C 107.34375 -21.472656 111.0625 -32.722656 111.0625 -47.953125 L 111.0625 -82.46875 C 111.0625 -94.09375 110.535156 -102.460938 109.484375 -107.578125 C 108.441406 -112.691406 106.726562 -116.03125 104.34375 -117.59375 C 101.96875 -119.164062 97.929688 -119.953125 92.234375 -119.953125 L 91.890625 -122.046875 L 134.78125 -122.046875 L 134.4375 -119.953125 C 128.738281 -119.953125 124.695312 -119.164062 122.3125 -117.59375 C 119.925781 -116.03125 118.179688 -112.691406 117.078125 -107.578125 C 115.972656 -102.460938 115.421875 -94.09375 115.421875 -82.46875 Z M 115.421875 -82.46875 "/></g></g></g><g fill="#5e17eb" fill-opacity="1"><g transform="translate(743.90656, 304.007222)"><g><path d="M 101.828125 0 C 95.898438 0 88.460938 -6.914062 79.515625 -20.75 C 75.671875 -26.5625 71.6875 -32.375 67.5625 -38.1875 C 63.4375 -44 58.816406 -48.992188 53.703125 -53.171875 C 48.585938 -57.359375 43.472656 -59.507812 38.359375 -59.625 L 38.359375 -39.40625 C 38.359375 -21.96875 39.171875 -11.503906 40.796875 -8.015625 C 41.492188 -6.617188 42.539062 -5.398438 43.9375 -4.359375 C 45.332031 -3.316406 46.875 -2.675781 48.5625 -2.4375 C 50.25 -2.207031 52.484375 -2.09375 55.265625 -2.09375 L 55.625 0 L 8.71875 0 L 9.0625 -2.09375 C 14.875 -2.09375 19.117188 -3.195312 21.796875 -5.40625 C 24.703125 -7.84375 26.15625 -19.175781 26.15625 -39.40625 L 26.15625 -82.640625 C 26.15625 -95.078125 25.773438 -103.59375 25.015625 -108.1875 C 24.265625 -112.78125 23.191406 -115.660156 21.796875 -116.828125 C 19.117188 -119.035156 14.875 -120.140625 9.0625 -120.140625 L 8.71875 -122.046875 L 55.625 -122.046875 L 55.265625 -120.140625 C 52.484375 -120.140625 50.25 -120.019531 48.5625 -119.78125 C 46.875 -119.550781 45.332031 -118.910156 43.9375 -117.859375 C 42.539062 -116.816406 41.519531 -115.597656 40.875 -114.203125 C 40.238281 -112.804688 39.75 -110.539062 39.40625 -107.40625 C 38.707031 -102.289062 38.359375 -94.035156 38.359375 -82.640625 L 38.359375 -62.765625 C 43.359375 -63.578125 49.316406 -66.859375 56.234375 -72.609375 C 63.148438 -78.367188 69.222656 -85.226562 74.453125 -93.1875 C 79.679688 -101.15625 82.296875 -108.21875 82.296875 -114.375 C 82.296875 -116.351562 81.6875 -117.804688 80.46875 -118.734375 C 79.25 -119.671875 77.007812 -120.140625 73.75 -120.140625 L 73.40625 -122.046875 L 116.640625 -122.046875 L 116.296875 -120.140625 C 104.085938 -120.140625 94.960938 -115.894531 88.921875 -107.40625 C 86.015625 -103.21875 83.222656 -98.828125 80.546875 -94.234375 C 77.878906 -89.648438 73.84375 -84.363281 68.4375 -78.375 C 63.03125 -72.382812 56.609375 -67.007812 49.171875 -62.25 C 60.441406 -61.550781 69.625 -57.191406 76.71875 -49.171875 C 81.019531 -44.515625 85.640625 -38.289062 90.578125 -30.5 C 95.515625 -22.71875 99.378906 -17.082031 102.171875 -13.59375 C 108.679688 -5.925781 116.53125 -2.09375 125.71875 -2.09375 L 126.0625 0 Z M 101.828125 0 "/></g></g></g><g clip-path="url(#e874b59536)"><g fill="#5e17eb" fill-opacity="1"><g transform="translate(859.154358, 304.007222)"><g><path d="M 77.234375 -2.09375 C 81.648438 -2.09375 84.757812 -2.441406 86.5625 -3.140625 C 88.363281 -3.835938 89.265625 -5.640625 89.265625 -8.546875 C 89.265625 -11.453125 86.1875 -21.332031 80.03125 -38.1875 L 26.84375 -38.1875 C 21.851562 -23.425781 19.359375 -14.15625 19.359375 -10.375 C 19.359375 -6.59375 20.316406 -4.265625 22.234375 -3.390625 C 24.148438 -2.523438 27.609375 -2.09375 32.609375 -2.09375 L 32.953125 0 L -6.28125 0 L -5.921875 -2.09375 C -2.554688 -2.09375 0.0820312 -2.378906 2 -2.953125 C 3.914062 -3.535156 6.007812 -5.078125 8.28125 -7.578125 C 10.550781 -10.078125 12.726562 -13.707031 14.8125 -18.46875 C 16.90625 -23.238281 19.40625 -29.925781 22.3125 -38.53125 L 37.84375 -83.34375 C 43.300781 -99.15625 46.03125 -108.742188 46.03125 -112.109375 C 46.03125 -115.484375 45.21875 -117.664062 43.59375 -118.65625 C 41.96875 -119.644531 38.828125 -120.140625 34.171875 -120.140625 L 33.828125 -122.046875 L 62.59375 -122.046875 L 93.453125 -38.53125 C 98.679688 -24.695312 102.195312 -15.921875 104 -12.203125 C 105.800781 -8.484375 107.519531 -6.101562 109.15625 -5.0625 C 112.0625 -3.082031 115.722656 -2.09375 120.140625 -2.09375 L 120.484375 0 L 76.890625 0 Z M 52.828125 -112.640625 L 28.25 -42.375 L 78.640625 -42.375 Z M 52.828125 -112.640625 "/></g></g></g></g><g clip-path="url(#d97ec840d1)"><g fill="#5e17eb" fill-opacity="1"><g transform="translate(-97.662217, 258.185804)"><g><path d="M 102.109375 -240.101562 L 82.363281 -182.007812 L 176.492188 -150.015625 L 112.511719 38.238281 L 170.605469 57.980469 L 234.585938 -130.273438 L 328.714844 -98.28125 L 348.457031 -156.378906 Z M 102.109375 -240.101562 "/></g></g></g></g></svg>